<svg xmlns="http://www.w3.org/2000/svg" width="230" height="230">
  <defs>
    <linearGradient id="a">
      <stop offset="0%" stop-color="#004b8b"/>
      <stop offset="100%" stop-color="#5eb6dd"/>
    </linearGradient>
  </defs>
  <path fill="url(#a)" d="m120 148-6 5h-9s-5 0-5 5v27s0 5 5 5h48s5 0 5-5v-27s0-5-5-5h-27l-6-5Zm52.97-43.03.01-21.97c.66-7.66 8.85-8.52 14.01-6.23 3.55 1.68 6.15 5.17 8.88 7.95L211.16 100c4.44 4.28 10.54 9.57 9.6 16-1.23 8.15-8.12 8.99-14.76 9h-72s-5.38 8.53-15 8.39c-8.83 0-15-8.39-15-8.39l-38-.03s-5.39 8.33-15 8.33c-8.47-.05-12.02-4.53-15-8.3H15.99s-1.97.02-3.95-1.17c-6.67-3.56-6.67-14.1 0-17.66 2.23-1.19 3.93-1.19 3.93-1.19L36 105c4-6 9-8.43 15-8.33 9.78.16 15 8.33 15 8.33h38s5.13-8.43 15-8.48c10.43.09 15 8.48 15 8.48l38.97-.03ZM61.88 115c-.01-6-4.88-11-10.88-11-6 .02-11 5-11 11-.02 6 5 11 11 11 6-.02 10.9-5 10.88-11Zm68.12 0c-.02-6-5-11.13-11-11-6 0-11 5-10.98 11-.02 6 4.98 11.03 10.98 11.02 6 0 10.96-5.02 11-11.02Z"/>
</svg>
